<?xml version="1.0" standalone="no"?>
<!DOCTYPE svg PUBLIC "-//W3C//DTD SVG 20010904//EN"
 "http://www.w3.org/TR/2001/REC-SVG-20010904/DTD/svg10.dtd">
<svg version="1.0" xmlns="http://www.w3.org/2000/svg"
 width="512.000000pt" height="512.000000pt" viewBox="0 0 512.000000 512.000000"
 preserveAspectRatio="xMidYMid meet">

<g transform="translate(0.000000,512.000000) scale(0.100000,-0.100000)"
fill="#000000" stroke="none">
<path d="M2180 5105 c-205 -28 -385 -86 -564 -178 -107 -56 -132 -81 -123
-126 6 -27 0 -34 -68 -85 -67 -50 -77 -55 -99 -45 -13 6 -35 9 -48 6 -13 -4
-74 -54 -136 -113 -144 -136 -167 -175 -167 -294 0 -68 5 -93 22 -126 36 -67
70 -101 135 -133 55 -28 71 -31 154 -31 l93 0 3 -172 c2 -95 7 -181 12 -190 6
-13 -1 -21 -34 -38 -56 -29 -114 -91 -147 -158 -24 -49 -28 -69 -28 -142 0
-73 4 -93 28 -142 60 -121 161 -188 299 -196 l78 -5 6 -36 c12 -72 53 -228 79
-301 41 -114 111 -224 206 -324 l85 -91 -21 -160 c-24 -177 -40 -221 -94 -266
-50 -41 -112 -56 -281 -69 -475 -35 -597 -58 -764 -141 -284 -141 -481 -416
-525 -733 -6 -43 -11 -229 -11 -422 l0 -345 25 -24 24 -25 2241 0 2241 0 24
25 25 24 0 343 c0 385 -9 480 -60 619 -83 231 -249 420 -466 531 -160 83 -263
104 -669 138 -324 27 -367 40 -428 126 -24 35 -30 60 -50 209 l-23 170 85 91
c95 100 165 210 206 324 26 73 67 229 79 301 l6 36 73 5 c134 9 235 77 294
196 24 49 28 69 28 142 0 70 -5 95 -26 140 -29 62 -102 140 -149 160 -26 11
-30 17 -24 34 4 12 10 99 13 195 l6 173 52 20 c74 27 153 103 186 176 52 115
44 219 -27 359 -138 273 -382 469 -684 551 l-97 26 -450 2 c-332 2 -475 -1
-545 -11z m530 -497 l0 -103 -75 -53 -75 -53 -75 53 -75 53 0 103 0 102 150 0
150 0 0 -102z m-760 -1105 c1 -44 35 -108 71 -134 28 -19 46 -24 99 -24 53 0
71 5 99 24 36 26 70 90 71 134 l0 27 270 0 270 0 0 -27 c1 -40 33 -106 65
-131 65 -51 145 -51 210 0 32 25 64 91 65 131 l0 27 160 0 160 0 0 -57 c0 -32
-14 -123 -31 -203 -17 -80 -46 -219 -64 -310 -60 -285 -107 -408 -204 -531
-132 -166 -320 -270 -539 -299 -324 -42 -659 137 -807 430 -43 85 -79 201
-109 352 -14 68 -41 197 -61 288 -20 91 -39 202 -42 248 l-6 82 162 0 161 0 0
-27z m-460 -55 c0 -37 21 -162 49 -285 l18 -83 -42 0 c-57 0 -123 37 -160 89
-26 37 -30 51 -30 111 0 60 4 74 30 111 26 37 100 89 127 89 4 0 8 -15 8 -32z
m2240 -28 c116 -116 45 -322 -118 -338 l-49 -4 28 128 c16 71 31 161 35 201
l7 71 30 -10 c16 -6 47 -28 67 -48z m-1490 -1382 c239 -83 522 -68 733 38 35
18 49 21 52 12 8 -25 35 -261 30 -268 -3 -4 -55 -16 -117 -26 -162 -27 -594
-27 -756 0 -62 10 -114 22 -117 26 -5 7 22 243 30 268 4 9 15 7 47 -9 23 -12
67 -30 98 -41z m-117 -378 c283 -48 603 -47 890 4 l127 22 20 -21 20 -22 -307
-228 c-169 -126 -312 -228 -318 -228 -6 0 -149 102 -317 227 l-307 228 27 23
c14 12 31 21 37 19 5 -2 63 -12 128 -24z m-1371 -473 c11 -52 35 -85 79 -108
34 -17 60 -19 219 -19 l180 0 0 -40 0 -40 -380 0 c-209 0 -380 3 -380 8 0 16
71 144 107 192 l38 51 65 -3 64 -3 8 -38z m3873 -143 c34 -72 75 -205 75 -246
0 -17 -11 -18 -144 -18 -160 0 -176 6 -176 61 0 40 -32 101 -70 132 -39 34
-88 47 -172 47 -61 0 -69 2 -84 25 -15 23 -15 27 0 50 l16 25 260 0 259 0 36
-76z m-1395 26 c-6 -11 -13 -20 -16 -20 -2 0 0 9 6 20 6 11 13 20 16 20 2 0 0
-9 -6 -20z m234 -526 c13 -13 16 -46 16 -210 l0 -194 -180 0 -180 0 0 59 c0
86 11 109 57 116 70 11 79 14 113 38 42 27 80 91 80 132 0 62 56 97 94 59z
m-1974 -190 c10 -48 40 -90 80 -113 34 -19 54 -21 219 -21 l181 0 0 -40 0 -40
-420 0 -420 0 0 125 0 125 177 -2 177 -3 6 -31z"/>
<path d="M2482 3365 c-28 -35 -58 -241 -43 -288 22 -67 76 -97 172 -97 50 0
64 4 84 25 53 52 20 115 -64 123 l-53 5 6 46 c20 139 20 167 -3 190 -29 29
-74 28 -99 -4z"/>
<path d="M2246 2809 c-61 -48 -9 -130 123 -193 62 -29 72 -31 186 -31 114 0
123 2 185 31 36 17 84 48 108 69 36 31 42 42 42 75 0 72 -67 92 -128 39 -113
-99 -278 -103 -403 -9 -61 46 -76 48 -113 19z"/>
</g>
</svg>
